<svg id="Layer_1" data-name="Layer 1" xmlns="http://www.w3.org/2000/svg" viewBox="0 0 400 300" width="406" height="306" class="illustration"><path d="M55.31,111.42S.66,234.86,144.55,236.59s209.67-17.23,210.32-80S303.7,35.13,213.37,34.48,74.19,57.45,55.31,111.42Z" fill="#e6e6e6" opacity="0.3"></path><path d="M267.69,68.4H177.42l1.24,88.5H302.57V103.28A34.88,34.88,0,0,0,267.69,68.4Z" fill="#68e1fd"></path><path d="M177.42,68.4h0a34.88,34.88,0,0,1,34.88,34.88V156.9a0,0,0,0,1,0,0H142.54a0,0,0,0,1,0,0V103.28A34.88,34.88,0,0,1,177.42,68.4Z" fill="#24285b"></path><path d="M177.42,156.9h0a34.88,34.88,0,0,1,34.88,34.88V245.4a0,0,0,0,1,0,0H142.54a0,0,0,0,1,0,0V191.78A34.88,34.88,0,0,1,177.42,156.9Z" transform="translate(354.84 402.3) rotate(180)" fill="#68e1fd"></path><path d="M177.42,156.9h0a34.88,34.88,0,0,1,34.88,34.88V245.4a0,0,0,0,1,0,0H142.54a0,0,0,0,1,0,0V191.78A34.88,34.88,0,0,1,177.42,156.9Z" transform="translate(354.84 402.3) rotate(180)" opacity="0.09"></path><path d="M242.52,29.18h0a2,2,0,0,1,2,2v73.65a0,0,0,0,1,0,0h-4.09a0,0,0,0,1,0,0V31.22a2,2,0,0,1,2-2Z" fill="#68e1fd"></path><path d="M242.52,29.18h0a2,2,0,0,1,2,2v73.65a0,0,0,0,1,0,0h-4.09a0,0,0,0,1,0,0V31.22a2,2,0,0,1,2-2Z" fill="#fff" opacity="0.44"></path><circle cx="242.64" cy="104.87" r="7.78" fill="#ffd200"></circle><polygon points="244.56 31.22 263.71 31.22 263.71 38.76 244.56 43.61 244.56 31.22" fill="#ffd200"></polygon><rect x="225.5" y="156.9" width="33.7" height="12.25" fill="#24285b"></rect><rect x="234.01" y="169.15" width="16.4" height="97.48" fill="#68e1fd"></rect><rect x="234.01" y="169.15" width="16.4" height="97.48" fill="#fff" opacity="0.44"></rect><polygon points="234.01 169.15 234.01 201.82 250.41 191.37 250.41 169.15 234.01 169.15" opacity="0.09"></polygon><ellipse cx="93.68" cy="69.73" rx="36.26" ry="34.52" fill="#ffd200"></ellipse><polygon points="110.83 95.18 133.56 106.4 116.9 85.3 110.83 95.18" fill="#ffd200"></polygon><path d="M111.16,69.34a7.81,7.81,0,0,0,3.94-7.43,7.37,7.37,0,0,0-5.71-6.74c-2.8-.72-8.34-.62-9.58,2.64-1.57,4.1,3.2,6.92,3.18,10.82a6.79,6.79,0,0,1-7.77,6.77,13,13,0,0,1-6.1-3.14c-1.36-1.15-2.61-3.06-4.41-3.55S81.11,69.8,79.85,71a9.08,9.08,0,0,0-3,5.05c-.67,4.12,2.6,6.53,6.3,7.08a18,18,0,0,0,6.66-.29c1.63-.38,3.61-1,4.63-2.42,1.13-1.62.3-3.33-.73-4.76A30.74,30.74,0,0,0,89.63,71a31.56,31.56,0,0,0-5-3.72A59.26,59.26,0,0,0,79,64.55c-4.44-2.08-1.62-8.7.94-11.26,1.44-1.44,3.61-2.81,5.73-2.58,2.4.26,2.76,2.68,2.23,4.62-1.17,4.23-5.34,6.81-9.22,8.15C70.76,66.2,72.06,77,76.14,82.4c4.92,6.57,14,8.12,21.41,5.06,3.24-1.35,7.12-4.06,5.55-8.08a22.25,22.25,0,0,0-3.25-5.22,15.65,15.65,0,0,0-4.32-4c-2.81-1.67-6.68-1.92-9.42.06-3.6,2.62-2.11,6.86-2.61,10.59-.22,1.62-1.16,3.93-3,4.1-1.21.11-2.25-.82-3.09-1.57a34.67,34.67,0,0,1-2.52-2.48,32.79,32.79,0,0,1-4-5.54c-1.17-2-2.53-4.42-2.42-6.84.21-4.46,5.83-7.06,9.4-8.44,4.78-1.85,9.56-1.25,14.42-.07,2.35.57,4.68,1.22,7,1.67,2.06.39,4.43.88,6.44,0,3.18-1.36,4.51-5.61,4.84-8.77a6.29,6.29,0,0,0-1.06-4.66c-1.21-1.49-3.09-1.75-4.9-1.82-4-.17-8.75-.11-11.43,3.41-2.38,3.12-.85,6.46,1,9.36,1,1.58,2.2,3.27,2.31,5.21a6,6,0,0,1-2.67,5.26c-1.33.87-3.24,1-4.12,2.51s.1,3.7.78,5.19A18.26,18.26,0,0,0,98,85.45c3.53,2,8.16,3.09,11.7.54,3.37-2.43,5.74-6.62,6.85-10.56.56-2,.59-4-.92-5.5a17.86,17.86,0,0,0-5.43-3.41c-3.15-1.41-7.7-1.76-9.92,1.46a5.22,5.22,0,0,0-.66,4.58,4.7,4.7,0,0,0,3.69,2.85c4,.86,9,1.32,12.84-.41,3.09-1.39,5.63-4.51,5.25-8-.1-.95-1.6-1-1.5,0,.44,4-3.3,6.81-6.91,7.42a23.37,23.37,0,0,1-6.47,0c-1.71-.19-4.39-.17-5.33-1.93a3.69,3.69,0,0,1,1.66-4.76,6.92,6.92,0,0,1,5.57-.23,20.28,20.28,0,0,1,5.41,2.93,3.39,3.39,0,0,1,1.6,3.11,11.82,11.82,0,0,1-.94,3.38c-1.39,3.55-4.22,8.35-8.31,9.06-3.78.66-8-1.58-10.62-4.09a16.87,16.87,0,0,1-3.22-4.11,15,15,0,0,1-1.1-2.46c-.39-1.12-.68-2.27.47-3,1.39-.85,2.89-1.11,4.09-2.32a7.55,7.55,0,0,0,2.07-4c.59-3.31-1.43-5.9-3-8.57-.86-1.4-1.69-3-1.38-4.69a5.82,5.82,0,0,1,3.51-4,15.34,15.34,0,0,1,6.76-.83c2,0,4.35,0,5.12,2.23a8.29,8.29,0,0,1-.25,5A9.06,9.06,0,0,1,106,59.71c-1.81,1.46-4.51.82-6.59.41s-4.12-1-6.17-1.46c-3.93-1-8-1.81-12-1.16a24.5,24.5,0,0,0-10.48,4.62c-2.74,2.07-4.44,4.95-3.63,8.47s3.17,7.06,5.46,9.88a31.76,31.76,0,0,0,4.21,4.31,5.14,5.14,0,0,0,4.13,1.56c2.88-.52,4.11-3.93,4.16-6.5,0-2-.35-4,.2-5.93a4.91,4.91,0,0,1,3.53-3.36c3.7-1,7,1.09,9.32,3.82a28,28,0,0,1,3.23,4.77c1.22,2.28.31,4.16-1.7,5.54-6.25,4.3-15.87,3.74-21.16-1.82a14.75,14.75,0,0,1-4.1-9.63,11.15,11.15,0,0,1,1-5.25c1-2,2.56-2.67,4.56-3.37a15.87,15.87,0,0,0,8.15-6.29c1.41-2.16,2.33-5.62.39-7.76-2.32-2.58-6.27-1.08-8.58.71a12.35,12.35,0,0,0-4.6,8c-.22,1.61-.25,3.55.73,4.94S78.54,66,80,66.57a29.09,29.09,0,0,1,9.76,6.59,17.36,17.36,0,0,1,3.58,4.57c1.07,2.36-2.22,3.24-3.86,3.62-3.24.76-9.93,1.07-11-3.18-.55-2.15.6-4.24,2.06-5.73a11.74,11.74,0,0,1,2.36-1.92c1.3-.76,2.23-.08,3.16.85,2.56,2.55,5.51,5,9.21,5.53a8.28,8.28,0,0,0,8.44-11.73c-.88-1.79-2.54-3.42-2.62-5.51-.1-2.35,2-2.91,3.94-3.2,3.42-.52,7.53.62,8.46,4.37a6.43,6.43,0,0,1-3,7.22c-.85.44-.1,1.74.76,1.29Z" fill="#fff"></path></svg>