<svg id="Layer_1" data-name="Layer 1" xmlns="http://www.w3.org/2000/svg" xmlns:xlink="http://www.w3.org/1999/xlink" viewBox="0 0 192.05 154.33" width="406" height="306" class="illustration"><defs><linearGradient id="linear-gradient" x1="68.94" y1="61.82" x2="175.79" y2="51.55" gradientUnits="userSpaceOnUse"><stop offset="0.01"></stop><stop offset="0.13" stop-opacity="0.69"></stop><stop offset="0.25" stop-opacity="0.32"></stop><stop offset="1" stop-opacity="0"></stop></linearGradient><linearGradient id="linear-gradient-2" x1="148.15" y1="83.99" x2="-27.05" y2="77.57" xlink:href="#linear-gradient"></linearGradient><linearGradient id="linear-gradient-3" x1="125.45" y1="117.39" x2="133.94" y2="106.34" gradientUnits="userSpaceOnUse"><stop offset="0.01"></stop><stop offset="0.08" stop-opacity="0.69"></stop><stop offset="0.21" stop-opacity="0.32"></stop><stop offset="1" stop-opacity="0"></stop></linearGradient><linearGradient id="linear-gradient-4" x1="136.03" y1="70.41" x2="115.61" y2="204.53" xlink:href="#linear-gradient-3"></linearGradient><linearGradient id="linear-gradient-5" x1="120.25" y1="86.57" x2="118.56" y2="115.71" xlink:href="#linear-gradient-3"></linearGradient><linearGradient id="linear-gradient-6" x1="151.57" y1="102.32" x2="95.16" y2="65.36" xlink:href="#linear-gradient"></linearGradient><linearGradient id="linear-gradient-7" x1="102.66" y1="82.43" x2="102.63" y2="92.77" xlink:href="#linear-gradient"></linearGradient><linearGradient id="linear-gradient-8" x1="102.71" y1="84.95" x2="102.06" y2="95.47" xlink:href="#linear-gradient"></linearGradient><linearGradient id="linear-gradient-9" x1="102.57" y1="87.8" x2="102.21" y2="96.23" xlink:href="#linear-gradient"></linearGradient><linearGradient id="linear-gradient-10" x1="119.33" y1="120.8" x2="92.44" y2="116.02" xlink:href="#linear-gradient-3"></linearGradient><linearGradient id="linear-gradient-11" x1="118.23" y1="139.25" x2="118.91" y2="138.08" xlink:href="#linear-gradient-3"></linearGradient><linearGradient id="linear-gradient-12" x1="140.61" y1="160.75" x2="161.44" y2="124.7" xlink:href="#linear-gradient-3"></linearGradient><linearGradient id="linear-gradient-13" x1="96.77" y1="79.52" x2="79.1" y2="30.37" xlink:href="#linear-gradient"></linearGradient></defs><title>13</title><path d="M195.33,113.16A53.59,53.59,0,0,0,189,129.85a35.06,35.06,0,0,1-13.25,21.81,40,40,0,0,1-11.75,6,55.59,55.59,0,0,1-8.32,2l-.15,0c-12.6,2-28.29,1.26-40.49-2.39-7.2-2.16-12.94-5.3-20.7-6-11.74-1.11-23.14.16-34.82-2.5C-3.26,134.37,7.33,75.37,39.38,56.16,51.44,48.93,66.12,46.43,77,38.05c4-3.08,6.42-8.36,9.71-12.15,6.41-7.37,15-13.71,24.21-17C136.55-.15,162.8,16.19,182,31.84,218.56,61.68,204.6,97.24,195.33,113.16Z" transform="translate(-13.8 -6.32)" fill="#68e1fd" opacity="0.18" style="isolation: isolate;"></path><polygon points="104.69 88.86 104.69 26.58 98.3 26.58 111.87 10.79 127.33 26.75 120.41 26.75 120.41 103.77 104.69 88.86" fill="#68e1fd"></polygon><polygon points="104.69 88.86 104.69 26.58 98.3 26.58 111.87 10.79 127.33 26.75 120.41 26.75 120.41 103.77 104.69 88.86" fill="url(#linear-gradient)"></polygon><polygon points="92.98 90.22 92.98 45.6 86.58 45.6 100.16 29.82 115.61 45.77 108.69 45.77 108.69 90.62 92.98 90.22" fill="#68e1fd"></polygon><polygon points="87.81 112.89 87.81 62.48 83.1 62.48 93.1 50.86 104.47 62.6 99.38 62.6 99.38 95.61 87.81 112.89" fill="#68e1fd"></polygon><polygon points="87.81 112.89 87.81 62.48 83.1 62.48 93.1 50.86 104.47 62.6 99.38 62.6 99.38 95.61 87.81 112.89" fill="url(#linear-gradient-2)"></polygon><path d="M175.74,151.66a40,40,0,0,1-11.75,6,55.59,55.59,0,0,1-8.32,2c-2-1.75-4.27-4-5.71-5.11-.16-.12-.3-.23-.44-.32-4.21-2.85-9.29-4.7-13.88-6.87-2.3-1.09-4.53-2.3-6.79-3.47a63.75,63.75,0,0,0-8.58-3.9l-.5-.17-.38-.13a15.78,15.78,0,0,1-5.5-2.65c-1.64-1.43-2.58-3.47-3.6-5.38-1.57-2.94-2.11-6.79-5.22-8-1.41-.54-1.88-2.27-2-3.75a55.53,55.53,0,0,1,.67-12.93q.83-6.28,1.69-12.57a3.77,3.77,0,0,1,.42-1.48,2.44,2.44,0,0,1,3.18-.65,4.59,4.59,0,0,1,2,2.84c1.08,3.81-.63,8.15,1,11.73l0,.07a13.86,13.86,0,0,0,1.76,2.56c2,2.48,4,5,6.19,7.22a10.26,10.26,0,0,0,4.24,3,4,4,0,0,0,4.63-1.44.05.05,0,0,0,0,0l.14-.25a5.32,5.32,0,0,0-.43-4.35,36.34,36.34,0,0,0-4.22-6.06,20.37,20.37,0,0,1-2.33-3.7,14.06,14.06,0,0,1-1.21-6.86,4.76,4.76,0,0,1,1-3c.76-.79,2.31-1.08,2.9-.16,3.53,5.36,4.32,9.92,10.12,14.57,1.57,1.25,6.09,6.37,7.78,7.45,5.17,3.31,8,9.14,11.57,14.15s7.77,9.15,12,13.36C168,144.84,173.34,148.78,175.74,151.66Z" transform="translate(-13.8 -6.32)" fill="#ffbbab"></path><path d="M128.65,113.5a35.92,35.92,0,0,0-4.22-6.08c.19-.82.74-1,2.12.38,2.26,2.17,5.29,7.78,8.83,8.16-1.95-.21-4.16-.35-5.61,1a3.49,3.49,0,0,0-.69.89A5.27,5.27,0,0,0,128.65,113.5Z" transform="translate(-13.8 -6.32)" fill="url(#linear-gradient-3)"></path><path d="M146.61,130.89c-8.55,2.14-12.74,10.91-17.14,3.27-.42,1.73-6.37-9.45-6.79-7.72.66-2.62-6.38,2.27-8.47.56s.88-9.94-1.56-8.76A17.15,17.15,0,0,1,110.89,106l1.2.9a13.93,13.93,0,0,0,1.76,2.57c2,2.47,4,4.94,6.19,7.21a10.47,10.47,0,0,0,4.24,3,4.09,4.09,0,0,0,4.63-1.44.09.09,0,0,0,0-.06,4.91,4.91,0,0,0-.23,3.19,9.1,9.1,0,0,0,2.46,3.93A19.48,19.48,0,0,0,146.61,130.89Z" transform="translate(-13.8 -6.32)" fill="url(#linear-gradient-4)"></path><path d="M133.52,117.76a9.86,9.86,0,0,1-5.19,4.94,44.85,44.85,0,0,0,3.64,5.2,41.49,41.49,0,0,1-6.44-4.65c-2-1.81-4.41-4-7.08-3.41-1.82.39-3.46,2.06-5.39.51a3.92,3.92,0,0,1-1.22-1.82c-.64-2-1.32-3.94-1.85-6a9.92,9.92,0,0,1-.53-2.75c0-.49.37-1.85-.6-1.38a16.36,16.36,0,0,0-5.2,4,23.88,23.88,0,0,0,.85-3.38,15.49,15.49,0,0,1,.7-3.35l1.28-3.7a13,13,0,0,0,.81-3.23c.11-1.58-1.72-5.54.5-6.39,1.46-.57,2.88,1.54,3.21,2.68,1.08,3.8-.63,8.14,1,11.72a18.47,18.47,0,0,0,2.34,3.33,76.7,76.7,0,0,0,5.41,6.27c1.55,1.61,3.3,3.26,5.67,3.42a3.78,3.78,0,0,0,2.64-.76c1.8-1.42,1.39-3.74.53-5.54-1.69-3.55-4.9-6.2-6.55-9.77a14.29,14.29,0,0,1-1.21-6.86,4.71,4.71,0,0,1,1-3c3.21-3.36,4,3.84,4.2,5.48a29,29,0,0,0,2.39,7.59c.47,1.12,1.15,2.41,2.36,2.57l-1.87.77A11.25,11.25,0,0,0,133.52,117.76Z" transform="translate(-13.8 -6.32)" fill="url(#linear-gradient-5)"></path><path d="M128.61,77a11.83,11.83,0,0,1-3.29,7.3,13.28,13.28,0,0,0-3.53,6.15c-.16.71-.25,1.45-.38,2.23H110.9c-.08-.53-.13-1.07-.23-1.59a12.28,12.28,0,0,0-3.09-6,15.19,15.19,0,0,1-3.23-5,12.62,12.62,0,0,1,9.76-16.71c.33,0,.67-.09,1-.12A12.54,12.54,0,0,1,128.61,77Z" transform="translate(-13.8 -6.32)" fill="#fff" style="isolation: isolate;"></path><path d="M126.55,77a11.87,11.87,0,0,1-3.28,7.3,13.11,13.11,0,0,0-3.53,6.15c-.17.71-.25,1.45-.38,2.23H110.9c-.08-.53-.13-1.07-.23-1.59a12.28,12.28,0,0,0-3.09-6,15.19,15.19,0,0,1-3.23-5,12.62,12.62,0,0,1,9.76-16.71c.33,0,.67-.09,1-.12A12.55,12.55,0,0,1,126.55,77Z" transform="translate(-13.8 -6.32)" fill="url(#linear-gradient-6)"></path><rect x="96.06" y="86.32" width="13.16" height="2.74" rx="1.37" fill="#68e1fd"></rect><rect x="96.52" y="88.62" width="11.77" height="2.45" rx="1.22" fill="#68e1fd"></rect><rect x="97.3" y="90.62" width="10.21" height="2.13" rx="1.06" fill="#68e1fd"></rect><rect x="96.06" y="86.32" width="13.16" height="2.74" rx="1.37" fill="url(#linear-gradient-7)"></rect><rect x="96.52" y="88.62" width="11.77" height="2.45" rx="1.22" fill="url(#linear-gradient-8)"></rect><rect x="97.3" y="90.62" width="10.21" height="2.13" rx="1.06" fill="url(#linear-gradient-9)"></rect><path d="M113.54,92.6a33.29,33.29,0,0,0-.73-5.71,43.28,43.28,0,0,1-.7-4.72c-.16-2.39.31-4.07,1.45-5.12a1,1,0,0,1,1.56,0l.1-.12a1.63,1.63,0,0,1,.75-.53,1.19,1.19,0,0,1,.9.12,1.74,1.74,0,0,1,.49.45,1.38,1.38,0,0,1,1.07-.18c.69.17,1.16.81,1.36,1.86a18.78,18.78,0,0,1-.56,7.49,21.27,21.27,0,0,0-.7,6.32l-.75.07a21.92,21.92,0,0,1,.71-6.55c.53-2.48,1-4.83.57-7.18-.09-.43-.3-1.16-.81-1.28a.64.64,0,0,0-.53.11,2.32,2.32,0,0,1,.13.4,9.3,9.3,0,0,1,.26,2.29.84.84,0,0,1-.25.65.59.59,0,0,1-.57.12,1.14,1.14,0,0,1-.66-.83,4.15,4.15,0,0,1-.13-2.17,1.93,1.93,0,0,1,.3-.61,1,1,0,0,0-.31-.31.41.41,0,0,0-.32,0,1,1,0,0,0-.38.3,1.49,1.49,0,0,0-.15.2,4.09,4.09,0,0,1,.77,2.93c-.07.51-.38,1-.92,1a1,1,0,0,1-.82-.67,3.75,3.75,0,0,1,0-3.19l0,0c-.18-.17-.29-.21-.34-.2a.6.6,0,0,0-.27.17c-.95.88-1.36,2.4-1.21,4.52a42.36,42.36,0,0,0,.69,4.63,34.41,34.41,0,0,1,.74,5.85Zm1.71-14.25a3,3,0,0,0,.1,2.18c.08.18.15.23.17.23a.54.54,0,0,0,.14-.35A3.29,3.29,0,0,0,115.25,78.35Zm1.93.08a4.05,4.05,0,0,0,.18,1.61v0A9,9,0,0,0,117.18,78.43Z" transform="translate(-13.8 -6.32)" fill="#68e1fd"></path><path d="M106.74,105.63s-5.39,11.67-4.85,13.59a20.33,20.33,0,0,0,2.41,4.57l5,5.71s2.57,6.85,4.54,7.45,4.62,1.2,4.62,1.2-9.42-13.41-10.34-14.94,1.36-10.14,2-11.37a8.39,8.39,0,0,0,1-2.35c.1-.51,4.74-4.68,5.15-6.72s.48-4-.41-4.58S114,96.76,114,96.76l-6.35,6.89Z" transform="translate(-13.8 -6.32)" fill="#ffbbab"></path><path d="M105.83,117.08a11,11,0,0,0-.16,2.74,8.74,8.74,0,0,0,.59,2.47,16.56,16.56,0,0,0,3.35,4.76q1.86,2.05,3.76,4c1.11-3.9-.26-8-1.3-11.93s-1.31-7.31.11-11c-1.4-.16-3.3,2.42-4,3.46A13.6,13.6,0,0,0,105.83,117.08Z" transform="translate(-13.8 -6.32)" fill="url(#linear-gradient-10)"></path><path d="M117.9,106.51s-7.34,4.37-7.72,5.33-2.88,7.48-2.57,10.6S119,138.56,119,138.56s23.71,13.4,28.26,12.76,10.08-8.35,5.37-13.17-15.35-6.85-17.61-7.06-8.19-2.66-12.08-4.91-7.88-4.81-7.88-4.81-1-5-1-5.43,4.5-3.07,5.12-5.22S119.33,107,117.9,106.51Z" transform="translate(-13.8 -6.32)" fill="#ffbbab"></path><path d="M111.86,102.32a2.14,2.14,0,0,0,.89-.23,8.41,8.41,0,0,0,1.43-.82,1.37,1.37,0,0,0,.58-1.87,13.37,13.37,0,0,0-1-2.45c.08.15-1.07,1.43-1.21,1.6-.44.55-.91,1.08-1.39,1.6s-.8.66-.6,1.25A1.44,1.44,0,0,0,111.86,102.32Z" transform="translate(-13.8 -6.32)" fill="#fff" opacity="0.21"></path><path d="M114.71,111a3.05,3.05,0,0,0,3-.9,1.47,1.47,0,0,0,.39-.5,1.79,1.79,0,0,0,.12-.52,3.69,3.69,0,0,0-.38-2,3.27,3.27,0,0,0-1.17.5l-1.42.82a6,6,0,0,0-1.43.84C113.28,109.9,114.12,110.83,114.71,111Z" transform="translate(-13.8 -6.32)" fill="#fff" opacity="0.21"></path><path d="M117.27,137.77a14,14,0,0,0,2.5,2l-.38-.13A17.5,17.5,0,0,1,117.27,137.77Z" transform="translate(-13.8 -6.32)" fill="url(#linear-gradient-11)"></path><path d="M164,157.61a55.59,55.59,0,0,1-8.32,2l-.15,0c-1.94-1.66-4.08-4-5.56-5.13-.16-.12-.3-.23-.44-.32-4.21-2.85-9.29-4.7-13.88-6.87-2.3-1.09-4.53-2.3-6.79-3.47,5.22,2.09,10.45,4.13,15.79,5.86,1.78.58,3.85,1.09,5.42.06a6.52,6.52,0,0,0,2-2.59c1.1-2.11,2.08-4.35,3.33-6.36.51.73-.26,1.85-.46,2.65a10.51,10.51,0,0,0-.27,3.66,10.73,10.73,0,0,0,4.06,7.28C160.33,155.62,162.33,156.4,164,157.61Z" transform="translate(-13.8 -6.32)" fill="url(#linear-gradient-12)"></path><path d="M84.58,105.21a9.11,9.11,0,0,1-2.76-1.12l2.09-3.4a5.38,5.38,0,0,0,1.55.63Zm5.14-.32-1.36-3.75a5.13,5.13,0,0,0,1.46-.82l2.49,3.11A9,9,0,0,1,89.72,104.89Zm-11.36-4.62a8.9,8.9,0,0,1-.84-2.86l4-.49A5.32,5.32,0,0,0,82,98.53Zm16.91-1.06L91.5,97.94a5.44,5.44,0,0,0,.27-1.66l4,0v0A9.09,9.09,0,0,1,95.27,99.21ZM81.94,94.05l-3.59-1.73a9.26,9.26,0,0,1,1.7-2.43l2.85,2.78A5.51,5.51,0,0,0,81.94,94.05Zm9-.58a5.34,5.34,0,0,0-1.13-1.24l2.48-3.12a9.21,9.21,0,0,1,2,2.19Zm-5.5-2.22-.9-3.89a9.52,9.52,0,0,1,3-.19l-.38,4A5.26,5.26,0,0,0,85.44,91.25Z" transform="translate(-13.8 -6.32)" fill="#fff"></path><path d="M147.65,88.3a7.55,7.55,0,0,1-2.32-.94l.59-1a6.57,6.57,0,0,0,2,.81ZM152,88,151.61,87a6.46,6.46,0,0,0,1.86-1l.71.89A7.39,7.39,0,0,1,152,88Zm-9.59-3.9a8.07,8.07,0,0,1-.71-2.41l1.13-.14a6.57,6.57,0,0,0,.61,2Zm14.28-.89-1.07-.36a6.87,6.87,0,0,0,.34-2.12l1.14,0v0A7.68,7.68,0,0,1,156.68,83.24Zm-13.26-5.32-1-.49a7.79,7.79,0,0,1,1.44-2.06l.82.79A6.49,6.49,0,0,0,143.42,77.92Zm11.47-.74a6.55,6.55,0,0,0-1.44-1.58l.71-.89a7.83,7.83,0,0,1,1.69,1.85Zm-7-2.84-.26-1.11a8.16,8.16,0,0,1,2.51-.16L150,74.21A6.64,6.64,0,0,0,147.88,74.34Z" transform="translate(-13.8 -6.32)" fill="#68e1fd"></path><path d="M103.66,74.71" transform="translate(-13.8 -6.32)" fill="#68e1fd"></path><path d="M75.72,55.94H74.3l-.64.92,3.5,10.33,1,.54s6.17-.36,11,2.68a4.32,4.32,0,0,0,2.11.52c.83-.15,4-1.26,4-1.26s1.39-2.11,2.54-3.5A48.27,48.27,0,0,1,103,61.76s-2.34-13.3-2.89-14.15-1.2-.58-1.2-.58l-10.57,9.2Z" transform="translate(-13.8 -6.32)" fill="#68e1fd"></path><path d="M99,50.15a16.44,16.44,0,0,1,.81,3.53l1,6.47a2,2,0,0,1,0,1,2.39,2.39,0,0,1-1,1,10.53,10.53,0,0,0-3,3.32c-.84,1.46-1.56,3.32-3.2,3.71-1,.25-2.29-.2-3.18.42a20.32,20.32,0,0,0-11-3.11l-3.33-9.07a3.82,3.82,0,0,1-.33-1.55c.07-1.12,1.09-2.12.82-3.21a46.46,46.46,0,0,0,15.37,3.06,1.07,1.07,0,0,0,1.33-1c.32-1.32.61-2.64.88-4,.19-.94.16-3.74.77-4.41C96.38,44.75,98.48,48.8,99,50.15Z" transform="translate(-13.8 -6.32)" fill="#fff"></path><path d="M99,50.15a16.44,16.44,0,0,1,.81,3.53l1,6.47a2,2,0,0,1,0,1,2.39,2.39,0,0,1-1,1,10.53,10.53,0,0,0-3,3.32c-.84,1.46-1.56,3.32-3.2,3.71-1,.25-2.29-.2-3.18.42a20.32,20.32,0,0,0-11-3.11l-3.33-9.07a3.82,3.82,0,0,1-.33-1.55c.07-1.12,1.09-2.12.82-3.21a46.46,46.46,0,0,0,15.37,3.06,1.07,1.07,0,0,0,1.33-1c.32-1.32.61-2.64.88-4,.19-.94.16-3.74.77-4.41C96.38,44.75,98.48,48.8,99,50.15Z" transform="translate(-13.8 -6.32)" fill="url(#linear-gradient-13)"></path><path d="M76.42,52.56a64.87,64.87,0,0,1,4.43,11.76.86.86,0,0,0,1.27.7A12.87,12.87,0,0,1,92.2,67.73a25.28,25.28,0,0,1,5.9-7.86.9.9,0,0,0,.37-.55.82.82,0,0,0-.06-.38,54.16,54.16,0,0,1-2.56-14.21c-3.42,2.52-7.12,5.5-7.71,9.71C84.42,53.09,80.41,51.92,76.42,52.56Z" transform="translate(-13.8 -6.32)" fill="#fff"></path><path d="M92.16,47.71l2-1.71,3,13.43s-5.54,5.27-5,8.3L88.14,54.44S90.14,49.42,92.16,47.71Z" transform="translate(-13.8 -6.32)" fill="#68e1fd" opacity="0.3"></path><path d="M88.14,54.44,92.2,67.73s2-8.64,3.38-11.5L91,44.73S87.67,50.47,88.14,54.44Z" transform="translate(-13.8 -6.32)" fill="#fff"></path><path d="M144.13,58.9a2.21,2.21,0,0,1,1.1-.45,2.48,2.48,0,0,1,.65.12l11.71,3.49c-3.2,4.3-8.61,6.34-12.39,10.14a2.24,2.24,0,0,1-.62.49,2.16,2.16,0,0,1-1.66-.27,19.69,19.69,0,0,0-6.26-1.67c-.87-.09-2.44.27-2.46-.64,0-.71,1.12-2,1.5-2.64A29.18,29.18,0,0,1,144.13,58.9Z" transform="translate(-13.8 -6.32)" fill="#fff"></path><path d="M144.78,92.37a36.25,36.25,0,0,0,5.78,8.74,7,7,0,0,1-2.78,1.45,23.11,23.11,0,0,0-7.93,4.93c-1-1.86-5.44-8-4.51-9.89C135.78,96.72,145,92.84,144.78,92.37Z" transform="translate(-13.8 -6.32)" fill="#fff"></path><path d="M82.3,110.42c3,.18,6,.47,9,.89a1.44,1.44,0,0,1,.76.26,1.52,1.52,0,0,1,.38.68A33.51,33.51,0,0,0,98.5,123c-3,1.84-11.67,5.66-14.56,2C82.84,123.56,81.42,110.37,82.3,110.42Z" transform="translate(-13.8 -6.32)" fill="#fff"></path></svg>